<?xml version="1.0" encoding="UTF-8"?>
<svg width="25px" height="32px" viewBox="0 0 25 32" version="1.1" xmlns="http://www.w3.org/2000/svg" xmlns:xlink="http://www.w3.org/1999/xlink">
    <title>city_icon</title>
    <g id="Page-1" stroke="none" stroke-width="1" fill="none" fill-rule="evenodd">
        <g id="devconf_lp" transform="translate(-989.000000, -514.000000)" fill="#FFFFFF">
            <g id="Group-3" transform="translate(989.000000, 512.000000)">
                <path d="M12.500031,17.9993077 C10.467326,17.9993077 8.81953914,16.346199 8.81953914,14.306929 C8.81953914,12.267659 10.467326,10.6145503 12.500031,10.6145503 C14.532736,10.6145503 16.1805229,12.267659 16.1805229,14.306929 C16.1782993,16.3452759 14.5318159,17.9970769 12.500031,17.9993077 L12.500031,17.9993077 Z M12.500031,8.15296448 C9.11221492,8.15296448 6.36587789,10.9081713 6.36587789,14.306929 C6.36587789,17.7056866 9.11221492,20.4608935 12.500031,20.4608935 C15.8878471,20.4608935 18.6341841,17.7056866 18.6341841,14.306929 C18.6301969,10.9098637 15.8861602,8.15696456 12.500031,8.15296448 L12.500031,8.15296448 Z M19.8861648,21.8221504 L12.500031,30.8313237 L5.11451066,21.8219197 C2.28520921,18.5064713 1.6797683,13.8255351 3.57200118,9.89553645 C5.08483669,6.88947864 8.01880213,4.86259351 11.3576983,4.51697148 C11.7373257,4.47873998 12.1185634,4.45989346 12.500031,4.46056738 C12.8819587,4.46027808 13.2636564,4.47974 13.6435905,4.51889459 C16.98218,4.864132 19.9159921,6.89063251 21.4286743,9.89638262 C23.3206771,13.8262274 22.7152362,18.5068559 19.8861648,21.8221504 Z M23.5984009,8.747899 C21.7080083,5.00867324 18.0502128,2.49200946 13.8922537,2.06992442 C12.96661,1.97669186 12.0340654,1.97669186 11.1084217,2.06992442 C6.95053936,2.49231716 3.29282054,5.00851939 1.40166113,8.7472836 C-0.992652184,13.5476067 -0.276029746,19.3212562 3.21859728,23.3858728 L11.5523044,33.5507606 C11.9825385,34.0758476 12.7556718,34.1516183 13.2790685,33.7199946 C13.34064,33.6691475 13.3971509,33.612531 13.4477577,33.5507606 L21.7814647,23.3858728 C25.2760151,19.321487 25.9926375,13.5479913 23.5984009,8.747899 Z" id="city_icon"></path>
            </g>
        </g>
    </g>
</svg>