<?xml version="1.0" encoding="UTF-8"?>
<svg width="32px" height="32px" viewBox="0 0 32 32" version="1.1" xmlns="http://www.w3.org/2000/svg" xmlns:xlink="http://www.w3.org/1999/xlink">
    <title>conference_icon</title>
    <g id="Page-1" stroke="none" stroke-width="1" fill="none" fill-rule="evenodd">
        <g id="devconf_lp" transform="translate(-797.000000, -513.000000)" fill="#FFFFFF">
            <g id="Group-2" transform="translate(797.000000, 512.000000)">
                <path d="M29.4999893,20.1318125 C29.4999893,20.8206875 28.939255,21.381125 28.2500151,21.381125 L27.000041,21.381125 L27.000041,14.884625 L28.2500151,14.884625 C28.939255,14.884625 29.4999893,15.4450625 29.4999893,16.1339375 L29.4999893,20.1318125 Z M16.0000313,30.5013125 C15.3107915,30.5013125 14.7500572,29.940875 14.7500572,29.252 C14.7500572,28.563125 15.3107915,28.0026875 16.0000313,28.0026875 C16.6892711,28.0026875 17.2500054,28.563125 17.2500054,29.252 C17.2500054,29.940875 16.6892711,30.5013125 16.0000313,30.5013125 L16.0000313,30.5013125 Z M5.0000215,21.3811875 L3.75004739,21.3811875 C3.06080758,21.3811875 2.50007328,20.82075 2.50007328,20.131875 L2.50007328,16.134 C2.50007328,15.445125 3.06080758,14.8846875 3.75004739,14.8846875 L5.0000215,14.8846875 C5.0000215,14.8846875 5.0000215,21.3811875 5.0000215,21.3811875 L5.0000215,21.3811875 Z M29.3619162,12.5541875 C28.9514489,9.6856875 27.6326259,7.0375 25.5458338,4.952 C22.9961093,2.4035 19.6059399,1 15.9999687,1 C12.3939976,1 9.00389073,2.4035 6.45410364,4.9519375 C4.36743667,7.0375 3.04855109,9.68575 2.63808383,12.554125 C1.11152583,13.0288125 0,14.4540625 0,16.1339375 L0,20.1318125 C0,22.1984375 1.68226542,23.8798125 3.74998486,23.8798125 L7.49996971,23.8798125 L7.49996971,12.3859375 L5.20119047,12.3859375 C5.61334613,10.2520625 6.6503325,8.2895625 8.2218518,6.71875 C10.2994515,4.64225 13.0618511,3.4986875 16.0000313,3.4986875 C21.3446101,3.4986875 25.8103488,7.32825 26.7964958,12.3859375 L24.5000303,12.3859375 L24.5000303,23.8798125 L27.000041,23.8798125 L27.000041,24.254625 C27.000041,26.32125 25.3177756,28.002625 23.2500562,28.002625 L19.5350273,28.002625 C19.0190042,26.5485 17.6295813,25.5039375 16.0000313,25.5039375 C13.9323118,25.5039375 12.2500464,27.1853125 12.2500464,29.2519375 C12.2500464,31.318625 13.9323118,33 16.0000313,33 C17.6295813,33 19.0189417,31.9554375 19.5350273,30.5013125 L23.2499936,30.5013125 C26.6962552,30.5013125 29.4999893,27.6990625 29.4999893,24.254625 L29.4999893,23.6649375 C30.9548843,23.1491875 32,21.7605 32,20.1318125 L32,16.1339375 C32,14.454125 30.8885367,13.028875 29.3619162,12.5541875 L29.3619162,12.5541875 Z" id="conference_icon"></path>
            </g>
        </g>
    </g>
</svg>