<?xml version="1.0" encoding="UTF-8"?>
<svg width="32px" height="32px" viewBox="0 0 32 32" version="1.1" xmlns="http://www.w3.org/2000/svg" xmlns:xlink="http://www.w3.org/1999/xlink">
    <title>workshop_icon</title>
    <g id="Page-1" stroke="none" stroke-width="1" fill="none" fill-rule="evenodd">
        <g id="devconf_lp" transform="translate(-630.000000, -513.000000)" fill="#FFFFFF">
            <g id="Group-4" transform="translate(630.000000, 512.000000)">
                <path d="M15.9986023,3.9091095 C20.0085824,3.9091095 23.2713574,7.1718776 23.2713574,11.1818492 C23.2713574,15.1917526 20.0085824,18.4545207 15.9986023,18.4545207 C11.9886222,18.4545207 8.72584711,15.1917526 8.72584711,11.1818492 C8.72584711,7.1718776 11.9886222,3.9091095 15.9986023,3.9091095 M0,31.5454112 C0,32.3487282 0.650591371,33 1.45452376,33 C2.25852433,33 2.9091157,32.3487282 2.9091157,31.5454112 C2.9091157,26.412623 5.86398144,21.8685158 10.4699393,19.7196325 C12.0639631,20.7555174 13.9602372,21.3636302 15.9986023,21.3636302 C18.0446719,21.3636302 19.9482414,20.7514265 21.5460153,19.7082462 C22.921039,20.3573361 24.1952217,21.2306076 25.2557225,22.2904925 C27.728747,24.7641935 29.0909525,28.0510979 29.0909525,31.5454112 C29.0909525,32.3487282 29.7414757,33 30.5454762,33 C31.3494768,33 32,32.3487282 32,31.5454112 C32,27.274099 30.3352715,23.2571047 27.3124967,20.2336545 C26.3010869,19.2217014 25.1255633,18.3539526 23.8644033,17.63859 C25.3104725,15.8801834 26.180405,13.6308684 26.180405,11.1818492 C26.180405,5.56749351 21.6122199,1 15.9986023,1 C10.3849846,1 5.81679959,5.56749351 5.81679959,11.1818492 C5.81679959,13.6249366 6.68318656,15.8687289 8.12291486,17.6252946 C3.12975222,20.4364951 0,25.6891467 0,31.5454112" id="workshop_icon"></path>
            </g>
        </g>
    </g>
</svg>