<?xml version="1.0" encoding="UTF-8"?>
<svg width="1745px" height="780px" viewBox="0 0 1745 780" version="1.1" xmlns="http://www.w3.org/2000/svg" xmlns:xlink="http://www.w3.org/1999/xlink">
    <title>yellow_box</title>
    <defs>
        <rect id="path-1" x="0" y="0" width="1745" height="780"></rect>
    </defs>
    <g id="Page-1" stroke="none" stroke-width="1" fill="none" fill-rule="evenodd">
        <g id="devconf_lp" transform="translate(0.000000, -1229.000000)">
            <g id="yellow_box" transform="translate(0.000000, 1229.000000)">
                <mask id="mask-2" fill="white">
                    <use xlink:href="#path-1"></use>
                </mask>
                <use id="Mask" fill="#F5BB00" xlink:href="#path-1"></use>
                <path d="M732.674735,-79.4079933 C732.674735,-101.274369 714.954324,-119 693.094388,-119 L445.958562,-119 C424.098626,-119 406.378215,-101.274369 406.378215,-79.4079933 C406.378215,-57.5416178 424.098626,-39.8159867 445.958562,-39.8159867 L693.094388,-39.8159867 C714.954324,-39.8159867 732.674735,-57.5416178 732.674735,-79.4079933 M1098.26749,1122.59238 C1119.22526,1116.33596 1131.14428,1094.26356 1124.88921,1073.29673 C1118.63607,1052.32989 1096.57912,1040.39688 1075.61748,1046.6591 C1024.29421,1061.98414 970.83441,1069.75587 916.721667,1069.75587 C812.440856,1069.75587 710.839409,1040.65201 622.907168,985.590867 C537.312368,931.994775 467.888415,856.160072 422.142169,766.283696 C412.214802,746.787707 388.37676,739.023715 368.879404,748.958223 C349.391708,758.890799 341.639515,782.747148 351.564949,802.247003 C403.827057,904.92034 483.126218,991.547707 580.889237,1052.76477 C681.432074,1115.72133 797.562363,1149 916.721667,1149 C978.509333,1149 1039.58997,1140.11499 1098.26749,1122.59238 M1219.95055,1072.34501 C1423.53406,960.890465 1550,747.398823 1550,515.184458 C1550,476.967439 1546.57976,438.671136 1539.83192,401.353318 C1535.93493,379.811164 1515.35172,365.512898 1493.84203,369.415237 C1472.34006,373.317577 1458.0646,393.94506 1461.96159,415.489148 C1467.86788,448.152391 1470.86348,481.695497 1470.86348,515.184458 C1470.86348,718.392332 1360.17852,905.225075 1182.00362,1002.77004 C1162.82556,1013.26845 1155.77469,1037.35351 1166.25546,1056.56548 C1173.44144,1069.74409 1187.01046,1077.20649 1201.01376,1077.20649 C1207.42382,1077.20649 1213.92845,1075.64208 1219.95055,1072.34501 M1473.94559,306.101724 C1493.86467,297.061285 1502.68927,273.572769 1493.65604,253.637788 C1444.01577,144.094961 1364.55966,51.1771857 1263.87275,-15.0678137 C1160.53152,-83.0605798 1040.26746,-119 916.085653,-119 L826.131987,-119 C804.257892,-119 786.529501,-101.255528 786.529501,-79.3659092 C786.529501,-57.4762909 804.257892,-39.7318184 826.131987,-39.7318184 L916.085653,-39.7318184 C1024.76067,-39.7318184 1129.97965,-8.29908434 1220.36411,51.1694522 C1308.51731,109.168627 1378.07666,190.501648 1421.52156,286.375547 C1428.14966,301.001494 1442.54758,309.649459 1457.61391,309.649459 C1463.08292,309.649459 1468.64079,308.510704 1473.94559,306.101724 M1187.60319,894.825503 C1265.45958,838.919549 1323.5207,761.826473 1355.51254,671.881654 C1362.83897,651.27598 1352.08105,628.628476 1331.48438,621.295661 C1310.87613,613.966709 1288.24607,624.72833 1280.9177,645.332072 C1226.10655,799.442887 1079.35387,902.985094 915.741125,902.985094 C896.185301,902.985094 876.548373,901.516986 857.374898,898.621335 C835.74898,895.360589 815.586804,910.242572 812.321385,931.868195 C809.059828,953.493818 823.93863,973.672582 845.556824,976.935259 C868.631035,980.420085 892.244012,982.185679 915.741125,982.185679 C1014.01073,982.185679 1108.0185,951.977417 1187.60319,894.825503 M744.641281,908.893187 C755.195856,889.724299 748.242458,865.610909 729.109518,855.037371 C605.436304,786.680648 528.611198,656.398729 528.611198,515.034706 C528.611198,428.13175 556.627427,345.995395 609.626098,277.503312 C618.877996,265.54717 620.531912,249.356198 613.887297,235.769937 C607.242682,222.183676 593.4594,213.572856 578.359931,213.572856 L293.880469,213.572856 C272.030241,213.572856 254.3177,231.320466 254.3177,253.213954 C254.3177,275.105509 272.030241,292.855052 293.880469,292.855052 L505.375308,292.855052 C468.634041,360.621993 449.485661,436.203064 449.485661,515.034706 C449.485661,685.272918 541.987273,842.154981 690.891883,924.457636 C696.949812,927.804891 703.501792,929.396336 709.964998,929.396336 C723.908461,929.396336 737.431208,921.994086 744.641281,908.893187 M1383.15582,514.963452 C1383.15582,390.183767 1334.61085,272.871647 1246.45892,184.639154 C1158.31086,96.4066614 1041.10843,47.8143214 916.445411,47.8143214 L193.591502,47.8143214 C171.725405,47.8143214 154,65.5582482 154,87.4428757 C154,109.329436 171.725405,127.07143 193.591502,127.07143 L916.445411,127.07143 C1130.12944,127.07143 1303.97282,301.079446 1303.97282,514.963452 C1303.97282,536.850013 1321.69823,554.592007 1343.56432,554.592007 C1365.43235,554.592007 1383.15582,536.850013 1383.15582,514.963452 M924.088316,816.427144 C757.985276,816.427144 622.853253,681.207888 622.853253,515.001934 C622.853253,348.794045 757.985276,213.572856 924.088316,213.572856 C974.007534,213.572856 1023.47846,226.057638 1067.14666,249.675666 C1086.39244,260.083841 1093.56323,284.133046 1083.15969,303.392905 C1072.76001,322.646964 1048.72405,329.826148 1029.47827,319.414107 C997.340141,302.033636 960.898764,292.84745 924.088316,292.84745 C801.670872,292.84745 702.077839,392.505283 702.077839,515.001934 C702.077839,637.494717 801.670872,737.15255 924.088316,737.15255 C963.250381,737.15255 1001.72841,726.82365 1035.36794,707.283429 C1054.28909,696.293263 1078.52795,702.731907 1089.51505,721.663067 C1100.49635,740.594227 1094.0637,764.852253 1075.14255,775.844352 C1029.43769,802.393607 977.201638,816.427144 924.088316,816.427144" id="logo_sygnet" fill="#FFCF3C" mask="url(#mask-2)"></path>
            </g>
        </g>
    </g>
</svg>